<?xml version="1.0" encoding="UTF-8"?>
<svg id="Ebene_1" data-name="Ebene 1" xmlns="http://www.w3.org/2000/svg" viewBox="0 0 595.28 841.89">
  <defs>
    <style>
      .cls-1 {
        fill: none;
        stroke: #19233d;
      }

      .cls-1, .cls-2 {
        stroke-miterlimit: 10;
        stroke-width: 6px;
      }

      .cls-3 {
        fill: #19233e;
      }

      .cls-2 {
        fill: #354f7b;
        stroke: #19233e;
      }
    </style>
  </defs>
  <path class="cls-2" d="M396.78,628.62l-19.83-6.59c-14.97-4.98-29.55,8.48-25.8,23.8l4.98,20.29-15.79-13.68c-11.92-10.33-30.55-3.47-32.94,12.12l-3.17,20.65-9.36-18.68c-7.06-14.1-26.9-14.9-35.07-1.41l-10.83,17.87-1.5-20.84c-1.13-15.73-19.15-24.06-31.86-14.72l-16.84,12.36,6.59-19.83c4.98-14.97-8.48-29.55-23.8-25.8l-20.29,4.98,13.68-15.79c10.33-11.92,3.47-30.55-12.12-32.94l-20.65-3.17,18.68-9.36c14.1-7.06,14.9-26.9,1.41-35.07l-17.87-10.83,20.84-1.5c15.73-1.13,24.06-19.15,14.72-31.86l-12.36-16.84,19.83,6.59c14.97,4.98,29.55-8.48,25.8-23.8l-4.98-20.29,15.79,13.68c11.92,10.33,30.55,3.47,32.94-12.12l3.17-20.65,9.36,18.68c7.06,14.1,26.9,14.9,35.07,1.41l10.83-17.87,1.69,23.71c1.79,9.13,12.72,11.53,18.12,3.97l10.81-15.67.9,19.36c.65,4.56,6.36,6.03,9.37,2.25l5.94-7.56.3,20.51c-19.89-5.45-24.36,7.94-24.36,7.94l-4.06,15.01-5.27-9.33-2.83,23.19-6.5-10.21c-23.88-9.02-31.58-4.86-33.27.41-3.26,8.76,10.91,16.97,23.29,22.27l17.69,6.54-37.27,4.77,35.99,6.44-37.77,17.03,38.1-7.24-22.98,20.78,26.65-12.51-15.63,26.05,19.73-18.39-1.47,16.5s5.83-12.02,10.39-21c4.06,7.3,36.34,14.7,36.34,14.7,0,0-11.76,3.12-13.2,3.26-7.16,2.56-4.99,10.19.86,10.97l45.23,9.04-14.99,2.1c-20.24,3.37-22.12,16.76-12.78,29.47l12.36,16.84Z"/>
  <ellipse class="cls-1" cx="392.18" cy="521.68" rx="8.06" ry="8.29"/>
  <path class="cls-1" d="M362.28,453.14c2.27,12.63,7.69,36.9,19.5,52.53,2.66,3.53,5.28,6.12,7.73,8.05"/>
  <path class="cls-1" d="M350.16,547.58c-12.92-5.9-3-12.74-1.66-13.57,5.68-3.52,15.13-8.06,40.75-4.65"/>
  <path class="cls-1" d="M342.53,492.38c.06-.25,1.54-5.72,5.83-6.97,3.73-1.08,7.96,1.5,9.72,6.39"/>
  <g>
    <g>
      <path class="cls-3" d="M123.57,495.22l-9.93-2.54-3.88,15.16,9.93,2.54c1.42.36,2.4.95,2.95,1.77.55.82.69,1.75.42,2.79-.27,1.06-.84,1.82-1.71,2.3-.87.47-2.02.53-3.46.16l-27.32-6.99c-1.44-.37-2.42-.97-2.96-1.82s-.68-1.79-.41-2.83c.27-1.06.84-1.81,1.72-2.26.88-.45,2.03-.49,3.45-.13l11.66,2.98,3.88-15.16-11.66-2.98c-1.44-.37-2.42-.97-2.96-1.82-.54-.84-.68-1.79-.41-2.83.27-1.06.85-1.81,1.72-2.26s2.03-.49,3.45-.13l27.32,6.99c1.42.36,2.4.95,2.95,1.75.55.8.69,1.74.41,2.81-.27,1.06-.84,1.82-1.71,2.3-.87.47-2.02.53-3.46.16Z"/>
      <path class="cls-3" d="M88.39,546.78l4.54-1.58.43-14.54-4.54-1.84c-1.77-.72-2.96-1.32-3.57-1.81-.61-.49-.9-1.27-.87-2.35.03-.91.38-1.71,1.07-2.39.69-.68,1.45-1.01,2.3-.98.49.01.99.11,1.51.29.52.18,1.23.47,2.15.87l22.96,9.83c.66.28,1.45.62,2.38,1.01.92.39,1.69.81,2.3,1.24.61.43,1.09.99,1.45,1.68.36.69.53,1.53.5,2.52-.03,1.01-.25,1.85-.65,2.51-.4.66-.91,1.19-1.52,1.59-.61.4-1.27.73-1.97.99-.7.26-1.63.6-2.8,1l-23.36,8.67c-1.78.68-3.07,1.01-3.86.99-.83-.02-1.58-.39-2.25-1.1-.67-.71-.99-1.56-.96-2.53.02-.57.13-1.05.35-1.46.22-.4.5-.73.86-1,.36-.27.9-.55,1.64-.84.73-.3,1.38-.55,1.94-.76ZM98.74,532.72l-.31,10.69,14.92-4.96-14.61-5.73Z"/>
      <path class="cls-3" d="M118.48,569.5l-18.08,17.68,20.9-4.03c1.36-.26,2.43-.17,3.23.29.79.45,1.28,1.17,1.47,2.17.2,1.02.01,1.9-.55,2.62-.57.72-1.53,1.21-2.89,1.48l-27.64,5.32c-3.08.59-4.87-.39-5.37-2.94-.12-.64-.14-1.23-.06-1.78.09-.55.28-1.08.6-1.61.31-.52.7-1.03,1.16-1.52.46-.49.93-.98,1.42-1.47l17.9-17.3-20.59,3.97c-1.34.26-2.42.14-3.22-.35-.81-.49-1.3-1.22-1.49-2.2-.19-1.01,0-1.88.58-2.62.58-.74,1.53-1.24,2.86-1.5l27.11-5.22c1.15-.22,2.08-.27,2.78-.14.78.16,1.46.56,2.05,1.17.59.62.96,1.33,1.12,2.15.12.64.12,1.21,0,1.7-.12.5-.32.95-.61,1.36-.29.41-.67.85-1.16,1.32s-1,.95-1.54,1.45Z"/>
      <path class="cls-3" d="M129.85,599.37l3.82,8.64c.99,2.25,1.64,4.27,1.93,6.06.29,1.79.16,3.6-.41,5.41-1.41,4.7-5.1,8.36-11.05,10.99-1.97.87-3.84,1.49-5.61,1.86-1.77.37-3.47.49-5.09.35-1.62-.14-3.19-.54-4.71-1.2-1.18-.53-2.23-1.21-3.17-2.04-.94-.83-1.77-1.8-2.49-2.92-.72-1.11-1.42-2.42-2.08-3.93l-3.82-8.64c-.53-1.21-.75-2.19-.66-2.97.09-.77.43-1.4,1.01-1.88.58-.48,1.4-.95,2.46-1.42l24.01-10.6c1.43-.63,2.61-.77,3.53-.41s1.7,1.25,2.33,2.68ZM125.74,604.26l-22.22,9.81,2.22,5.02c.49,1.1.9,1.95,1.23,2.55s.77,1.18,1.3,1.75,1.13,1,1.77,1.3c2.86,1.39,6.58,1.07,11.16-.95,3.23-1.43,5.44-2.98,6.61-4.67,1.18-1.69,1.67-3.34,1.48-4.96-.19-1.62-.74-3.45-1.63-5.47l-1.93-4.38Z"/>
      <path class="cls-3" d="M125.94,655.57l14.67-18.37-19.66,14.96c-1.09.83-2.09,1.21-3,1.13-.91-.07-1.68-.51-2.29-1.31-.59-.78-.81-1.62-.64-2.52.16-.9.79-1.77,1.9-2.61l22.54-17.15c1.24-.95,2.33-1.26,3.26-.94.93.32,1.81,1.03,2.65,2.13l1.36,1.79c.82,1.07,1.31,1.93,1.49,2.56.18.63.1,1.26-.23,1.88-.33.62-.95,1.51-1.86,2.67l-12.45,16.01,18.75-7.73c1.37-.57,2.39-.93,3.07-1.08.68-.15,1.31-.06,1.87.28.56.34,1.25,1.04,2.07,2.12l1.36,1.79c.84,1.1,1.29,2.14,1.34,3.12.06.98-.53,1.94-1.78,2.89l-22.54,17.15c-1.09.83-2.09,1.21-3,1.13s-1.68-.52-2.3-1.33c-.58-.76-.79-1.6-.62-2.51s.8-1.77,1.89-2.6l19.66-14.96-21.62,9.24c-1.41.6-2.46,1.01-3.15,1.24-.69.23-1.46.27-2.3.11-.84-.16-1.6-.69-2.28-1.58-.51-.67-.8-1.35-.86-2.04-.06-.69.03-1.33.29-1.94.26-.6.6-1.19,1.04-1.76.44-.57.89-1.16,1.37-1.77Z"/>
      <path class="cls-3" d="M165.42,697.92l1.54-4.55-11.22-9.26-4.24,2.45c-1.65.96-2.86,1.52-3.63,1.71-.76.18-1.56-.07-2.39-.75-.7-.58-1.11-1.35-1.23-2.31-.12-.96.1-1.77.64-2.42.31-.38.69-.71,1.15-1.01.46-.3,1.12-.69,2-1.16l21.86-12.09c.63-.35,1.38-.77,2.26-1.26.88-.49,1.67-.84,2.39-1.05.71-.21,1.45-.25,2.22-.12.76.14,1.53.52,2.29,1.15.78.64,1.31,1.33,1.58,2.05.28.72.38,1.45.32,2.18-.06.73-.21,1.45-.43,2.17-.22.71-.53,1.66-.93,2.83l-7.5,23.76c-.55,1.82-1.09,3.04-1.59,3.66-.53.64-1.28,1.01-2.25,1.1s-1.84-.17-2.59-.79c-.44-.36-.75-.75-.94-1.17-.18-.42-.27-.85-.26-1.29,0-.45.12-1.05.34-1.81.22-.76.41-1.43.59-2ZM160.68,681.12l8.25,6.81,5.24-14.83-13.49,8.02Z"/>
      <path class="cls-3" d="M199.15,682.5l8.42,4.3c2.19,1.12,3.96,2.28,5.32,3.48,1.36,1.21,2.39,2.69,3.1,4.46,1.87,4.54,1.32,9.7-1.64,15.5-.98,1.91-2.04,3.58-3.18,4.99-1.14,1.41-2.38,2.57-3.73,3.48-1.34.91-2.81,1.59-4.41,2.04-1.25.33-2.5.47-3.75.42-1.25-.05-2.51-.28-3.77-.69-1.26-.41-2.63-.98-4.09-1.73l-8.42-4.3c-1.17-.6-1.97-1.23-2.38-1.89-.41-.66-.55-1.36-.4-2.09.15-.74.48-1.62,1.01-2.65l11.93-23.38c.71-1.39,1.54-2.24,2.48-2.54.94-.31,2.11-.1,3.5.61ZM199.04,688.89l-11.05,21.64,4.89,2.5c1.07.55,1.93.95,2.57,1.2.64.25,1.34.43,2.11.53.77.1,1.5.06,2.2-.11,3.09-.72,5.78-3.32,8.06-7.78,1.61-3.15,2.33-5.74,2.18-7.79-.15-2.05-.81-3.64-1.99-4.78-1.17-1.14-2.75-2.21-4.72-3.22l-4.26-2.18Z"/>
      <path class="cls-3" d="M248.79,707.39l-15.79-4.19-2.26,8.49,14.54,3.86c1.07.28,1.8.74,2.2,1.36.4.62.5,1.32.29,2.11s-.64,1.36-1.29,1.72c-.65.36-1.52.39-2.6.1l-14.54-3.86-2.61,9.84,16.33,4.34c1.1.29,1.86.77,2.29,1.43.42.66.52,1.41.3,2.26-.22.82-.67,1.41-1.37,1.77-.69.36-1.59.4-2.69.11l-19.04-5.06c-1.53-.41-2.53-1.04-3.02-1.89-.49-.85-.53-2.04-.13-3.55l6.91-26c.27-1.01.63-1.79,1.1-2.35.47-.56,1.06-.9,1.77-1.02s1.57-.05,2.56.21l18.5,4.91c1.12.3,1.88.77,2.29,1.4s.51,1.36.3,2.16c-.22.82-.66,1.4-1.34,1.75-.67.35-1.57.38-2.69.08Z"/>
      <path class="cls-3" d="M272.76,736.42l.69-28.19c.04-1.46.4-2.55,1.08-3.27.69-.72,1.56-1.06,2.61-1.03,1.09.03,1.96.41,2.62,1.15.66.74.97,1.85.93,3.33l-.69,28.19c-.04,1.48-.4,2.58-1.09,3.29-.69.72-1.58,1.06-2.67,1.03-1.04-.03-1.89-.42-2.55-1.17-.66-.76-.97-1.87-.93-3.33Z"/>
      <path class="cls-3" d="M298.49,707.53l16.71,18.97-2.93-21.09c-.19-1.37-.04-2.44.45-3.21.49-.77,1.24-1.22,2.24-1.36,1.03-.14,1.89.09,2.58.69s1.13,1.59,1.32,2.96l3.87,27.88c.43,3.11-.64,4.85-3.22,5.2-.64.09-1.24.08-1.78-.04-.54-.11-1.07-.34-1.57-.68-.51-.34-.99-.75-1.45-1.24s-.93-.98-1.39-1.5l-16.34-18.78,2.89,20.77c.19,1.35.02,2.42-.52,3.2-.53.78-1.29,1.24-2.27,1.38-1.02.14-1.88-.1-2.59-.71-.71-.62-1.16-1.59-1.34-2.93l-3.8-27.35c-.16-1.16-.16-2.09,0-2.79.21-.77.63-1.43,1.28-1.99s1.38-.89,2.2-1.01c.64-.09,1.21-.06,1.7.08.49.15.93.37,1.33.68.4.31.81.72,1.26,1.23.44.51.9,1.05,1.37,1.61Z"/>
      <path class="cls-3" d="M359.64,690.94l-12.99,5.94,3.81,8.33,10.86-4.97c1.01-.46,1.86-.58,2.56-.35.7.23,1.23.71,1.57,1.47.35.75.37,1.47.07,2.14-.3.67-.95,1.24-1.94,1.69l-10.86,4.97,4.91,10.72c.62,1.36.78,2.51.46,3.45-.31.94-.95,1.63-1.91,2.07-.98.45-1.92.48-2.84.09-.92-.39-1.69-1.25-2.3-2.6l-11.46-25.04c-.43-.95-.65-1.79-.64-2.51,0-.73.25-1.37.72-1.91.47-.55,1.18-1.04,2.11-1.46l15.54-7.11c1.05-.48,1.94-.6,2.66-.37.72.23,1.26.73,1.6,1.48.35.77.38,1.5.08,2.2-.3.7-.97,1.29-2.02,1.77Z"/>
      <path class="cls-3" d="M384.21,693.06l-2.05,1.49,6.76,9.3c.89,1.22,1.28,2.32,1.16,3.29-.12.97-.61,1.77-1.48,2.4-.94.68-1.88.9-2.83.67-.95-.23-1.86-.93-2.71-2.11l-16.19-22.28c-.92-1.26-1.3-2.38-1.15-3.36s.86-1.93,2.13-2.84l9.54-6.93c1.32-.96,2.48-1.72,3.5-2.29,1.02-.57,2.02-.95,3.02-1.16,1.19-.28,2.39-.32,3.6-.11,1.21.2,2.34.65,3.39,1.32,1.05.68,1.95,1.54,2.72,2.6,1.57,2.16,2.21,4.33,1.93,6.5-.28,2.18-1.46,4.43-3.54,6.77,1.44-.2,3.03-.11,4.76.28,1.73.39,3.41.93,5.04,1.6,1.63.68,3.01,1.36,4.13,2.04,1.13.68,1.83,1.2,2.09,1.57.28.38.43.85.46,1.4.03.55-.09,1.09-.35,1.61-.26.52-.67.99-1.22,1.39-.66.48-1.32.73-2,.74s-1.34-.1-2.01-.34c-.67-.24-1.61-.62-2.83-1.14l-5.19-2.2c-1.89-.82-3.43-1.37-4.64-1.63-1.21-.27-2.26-.29-3.14-.07-.89.22-1.85.71-2.89,1.47ZM378.73,678.46l-5.41,3.93,5.78,7.96,5.25-3.82c1.41-1.02,2.51-2.01,3.29-2.95.78-.94,1.22-1.89,1.3-2.84.08-.95-.25-1.94-1-2.97-.58-.8-1.3-1.36-2.16-1.68s-1.75-.36-2.7-.14c-.9.21-2.35,1.04-4.36,2.51Z"/>
      <path class="cls-3" d="M411.96,647.31l-10.96,12.11,6.52,5.9,10.09-11.15c.74-.82,1.48-1.27,2.21-1.34.73-.07,1.4.17,2.01.71.6.55.92,1.19.94,1.93.02.74-.35,1.53-1.1,2.36l-10.09,11.15,7.55,6.83,11.33-12.53c.76-.84,1.54-1.3,2.32-1.38.78-.07,1.5.18,2.15.77.63.57.94,1.24.95,2.03,0,.78-.38,1.6-1.14,2.44l-13.22,14.61c-1.06,1.17-2.08,1.78-3.06,1.82-.98.04-2.05-.46-3.21-1.51l-19.95-18.05c-.77-.7-1.3-1.38-1.58-2.06-.28-.67-.31-1.35-.09-2.04s.67-1.42,1.36-2.18l12.84-14.2c.78-.86,1.54-1.32,2.3-1.39.76-.07,1.44.17,2.06.73.63.57.94,1.23.95,1.99,0,.76-.38,1.57-1.16,2.43Z"/>
      <path class="cls-3" d="M440.15,653.03l-23.52-15.56c-1.22-.81-1.95-1.69-2.2-2.65-.24-.96-.07-1.88.51-2.76.6-.91,1.39-1.45,2.37-1.61.98-.16,2.08.16,3.32.98l23.52,15.56c1.24.82,1.97,1.71,2.21,2.68.24.97.06,1.91-.55,2.81-.57.87-1.36,1.38-2.35,1.54-.99.15-2.1-.17-3.32-.98Z"/>
      <path class="cls-3" d="M460.91,623.75l-4.52,9.96c-.65,1.44-1.44,2.32-2.36,2.64-.92.32-2.09.17-3.5-.47l-24.5-11.11c-1.44-.65-2.33-1.44-2.67-2.35-.34-.92-.2-2.08.44-3.49l4.79-10.56c.71-1.56,1.41-2.86,2.12-3.92.71-1.05,1.54-1.91,2.5-2.56.81-.56,1.7-.98,2.67-1.25.97-.27,1.96-.37,2.95-.3.99.08,1.96.33,2.91.76,3.26,1.48,4.91,4.19,4.94,8.14,3.31-3.67,6.93-4.6,10.87-2.82,1.82.83,3.25,2.04,4.29,3.63,1.04,1.6,1.54,3.35,1.52,5.25-.04,1.18-.26,2.46-.67,3.82-.41,1.37-1.01,2.91-1.79,4.63ZM429.93,618.58l8.43,3.82,2.74-6.05c.75-1.65,1.17-2.99,1.26-4.02s-.19-1.99-.85-2.86c-.45-.65-1.07-1.15-1.84-1.5-1.65-.75-3-.66-4.08.27-1.07.93-2.15,2.59-3.24,4.99l-2.43,5.36ZM446.21,617.67l-3.12,6.87,9.52,4.32,3.22-7.09c2.02-4.46,1.43-7.42-1.79-8.88-1.65-.75-3.1-.71-4.37.11-1.27.82-2.42,2.38-3.46,4.68Z"/>
      <path class="cls-3" d="M455.76,597.16l-16.82-3.65c-1.43-.31-2.44-.87-3.01-1.67-.58-.8-.75-1.72-.52-2.77.24-1.1.79-1.89,1.64-2.38s2-.58,3.43-.27l17.2,3.73c1.96.42,3.64.56,5.05.41,1.41-.15,2.59-.71,3.56-1.66.97-.96,1.67-2.44,2.1-4.44.6-2.77.29-4.88-.93-6.35-1.22-1.46-3.33-2.52-6.32-3.17l-17.35-3.77c-1.45-.31-2.46-.87-3.03-1.66-.57-.79-.74-1.72-.51-2.78.23-1.07.77-1.85,1.62-2.36s2-.6,3.45-.29l16.82,3.65c2.74.59,4.96,1.36,6.67,2.29,1.71.93,3.1,2.28,4.16,4.06.9,1.53,1.44,3.19,1.61,5,.17,1.8.02,3.83-.47,6.09-.58,2.69-1.38,4.94-2.38,6.75-1,1.81-2.24,3.2-3.73,4.16-1.48.96-3.24,1.52-5.26,1.68-2.02.16-4.36-.05-7-.62Z"/>
      <path class="cls-3" d="M462.6,546.87l.02,2.54,11.5-.07c1.51,0,2.63.32,3.35.98.72.66,1.08,1.53,1.09,2.61,0,1.16-.36,2.05-1.11,2.69-.74.64-1.84.96-3.29.97l-27.54.17c-1.56,0-2.7-.33-3.4-1.03-.7-.7-1.06-1.82-1.07-3.39l-.07-11.79c-.01-1.63.05-3.02.18-4.18.13-1.16.41-2.2.82-3.13.47-1.13,1.13-2.12,2.01-2.99s1.89-1.53,3.05-1.98c1.16-.45,2.39-.69,3.69-.69,2.67-.02,4.81.72,6.41,2.22s2.75,3.77,3.44,6.83c.68-1.29,1.68-2.53,3-3.71,1.33-1.18,2.74-2.23,4.24-3.16,1.5-.93,2.85-1.65,4.06-2.17,1.21-.52,2.04-.78,2.5-.78.47,0,.94.14,1.41.44.47.3.83.71,1.11,1.23.27.52.41,1.12.41,1.8,0,.81-.18,1.5-.56,2.05s-.86,1.03-1.44,1.44c-.58.4-1.44.95-2.58,1.64l-4.82,2.94c-1.77,1.05-3.11,1.99-4.04,2.82-.92.83-1.55,1.67-1.89,2.51-.34.85-.5,1.92-.49,3.2ZM447.53,542.81l.04,6.69,9.84-.06-.04-6.49c-.01-1.74-.17-3.21-.48-4.39-.31-1.19-.83-2.09-1.56-2.71-.73-.62-1.73-.93-3-.92-.99,0-1.87.26-2.62.77-.75.51-1.31,1.21-1.68,2.11-.35.85-.52,2.52-.51,5.01Z"/>
      <path class="cls-3" d="M454.85,486.09l6.68-1.55c.89-.21,1.62-.28,2.19-.23.57.05,1.13.26,1.66.63.54.37,1.09.87,1.65,1.51,1.63,1.84,2.93,3.68,3.91,5.51s1.73,3.89,2.26,6.19c.62,2.68.77,5.22.46,7.61-.31,2.4-1.08,4.55-2.29,6.47s-2.84,3.55-4.88,4.9-4.44,2.34-7.2,2.98c-2.71.63-5.29.8-7.73.51-2.44-.29-4.62-1.03-6.56-2.24-1.93-1.21-3.58-2.84-4.93-4.9-1.35-2.06-2.36-4.52-3.02-7.37-.54-2.35-.71-4.5-.5-6.45.21-1.95.66-3.6,1.35-4.95.69-1.35,1.5-2.43,2.43-3.24.93-.82,1.81-1.32,2.63-1.51.89-.21,1.72-.05,2.5.46.78.51,1.27,1.23,1.49,2.15.12.51.11,1.02-.02,1.55-.13.52-.37.99-.73,1.41-1.16,1.19-2.02,2.16-2.58,2.93s-.96,1.71-1.2,2.85c-.24,1.13-.17,2.49.19,4.08.38,1.63,1,3.03,1.86,4.18.86,1.15,1.93,2.06,3.21,2.73,1.28.66,2.75,1.06,4.42,1.18,1.67.12,3.44-.03,5.33-.47,4.09-.95,7.02-2.62,8.79-5,1.77-2.39,2.26-5.26,1.49-8.63-.38-1.63-.95-3.12-1.71-4.45-.76-1.34-1.71-2.65-2.84-3.94l-5.66,1.31,1.27,5.47c.3,1.32.34,2.36.1,3.12-.24.77-.84,1.26-1.79,1.48-.78.18-1.48.05-2.12-.4-.64-.45-1.07-1.15-1.29-2.12l-1.86-8.02c-.23-.98-.33-1.84-.32-2.56s.28-1.36.78-1.92,1.36-.98,2.57-1.26Z"/>
    </g>
    <g>
      <path class="cls-3" d="M129.01,425.69l15.41,10.69c1.34.93,2.44,1.77,3.29,2.54.86.76,1.63,1.68,2.31,2.75,1.15,1.79,1.65,3.77,1.49,5.93s-1.01,4.35-2.54,6.56c-1.38,1.99-2.85,3.44-4.4,4.33-1.55.9-3.31,1.26-5.28,1.1-1.05-.09-2.15-.34-3.31-.75-1.16-.41-2.18-.92-3.07-1.53-.94-.65-1.47-1.41-1.6-2.27-.13-.86.08-1.71.65-2.52.55-.79,1.19-1.23,1.92-1.31s1.65.1,2.77.55c1.19.49,2.17.83,2.94,1.03.77.2,1.57.19,2.38-.04.81-.23,1.56-.84,2.25-1.83,1.83-2.63.81-5.29-3.06-7.97l-16.27-11.28c-1.2-.83-1.92-1.73-2.16-2.67s-.04-1.87.59-2.78c.64-.92,1.45-1.45,2.43-1.57.98-.12,2.07.23,3.27,1.07Z"/>
      <path class="cls-3" d="M145.59,401.23c2.69-2.56,5.52-4.21,8.48-4.95,2.97-.74,5.9-.58,8.8.49s5.64,2.96,8.22,5.67c1.91,2.01,3.37,4.09,4.38,6.24,1.02,2.16,1.55,4.35,1.61,6.59s-.4,4.42-1.37,6.56c-.98,2.14-2.48,4.18-4.52,6.12-2.03,1.93-4.16,3.33-6.38,4.2-2.23.87-4.44,1.22-6.65,1.05-2.21-.17-4.38-.83-6.52-1.99-2.14-1.15-4.14-2.7-5.99-4.65-1.9-1.99-3.35-4.09-4.36-6.3-1.01-2.21-1.53-4.41-1.55-6.61-.02-2.2.45-4.35,1.42-6.45s2.44-4.09,4.43-5.98ZM165.74,407.47c-1.81-1.9-3.68-3.25-5.61-4.06-1.94-.81-3.81-1.03-5.63-.66-1.82.37-3.46,1.25-4.94,2.66-1.05,1-1.83,2.12-2.35,3.36-.51,1.24-.73,2.55-.66,3.91.07,1.37.48,2.81,1.23,4.34.74,1.53,1.81,3.02,3.2,4.48,1.4,1.47,2.85,2.63,4.36,3.47,1.5.84,2.97,1.33,4.39,1.47,1.42.14,2.76-.01,4.01-.46,1.25-.45,2.4-1.17,3.45-2.17,1.34-1.28,2.26-2.79,2.75-4.53s.4-3.63-.27-5.67c-.67-2.04-1.98-4.08-3.93-6.13Z"/>
      <path class="cls-3" d="M200.61,405.1l-9.41,5.58c-1.36.81-2.51,1.08-3.45.81-.94-.26-1.81-1.06-2.6-2.39l-13.72-23.14c-.81-1.36-1.09-2.51-.84-3.46.24-.95,1.03-1.82,2.36-2.6l9.97-5.92c1.47-.87,2.8-1.54,3.98-1.99,1.19-.46,2.36-.68,3.52-.67.99,0,1.96.17,2.91.5s1.82.81,2.59,1.44c.77.63,1.42,1.39,1.95,2.29,1.83,3.08,1.62,6.25-.61,9.5,4.81-1.11,8.32.19,10.53,3.92,1.02,1.72,1.5,3.53,1.44,5.44-.06,1.9-.65,3.63-1.76,5.17-.71.95-1.62,1.86-2.74,2.75s-2.5,1.81-4.12,2.77ZM178.18,383.12l4.72,7.96,5.71-3.39c1.55-.92,2.67-1.78,3.34-2.58.67-.8.99-1.74.95-2.83,0-.8-.21-1.56-.65-2.29-.92-1.55-2.09-2.26-3.5-2.11-1.41.15-3.25.89-5.52,2.23l-5.06,3ZM192.04,391.71l-6.49,3.85,5.33,8.99,6.7-3.97c4.21-2.5,5.42-5.27,3.62-8.31-.92-1.55-2.14-2.36-3.64-2.41-1.51-.05-3.35.56-5.52,1.85Z"/>
      <path class="cls-3" d="M214.09,363.39l8.56,24.6,13.88-4.83c1.11-.39,2.05-.41,2.83-.08.78.33,1.31.91,1.59,1.72.29.83.23,1.6-.17,2.32-.41.72-1.17,1.27-2.29,1.66l-16.53,5.76c-1.49.52-2.68.56-3.56.13-.88-.43-1.58-1.39-2.1-2.86l-9.06-26.03c-.48-1.38-.53-2.53-.15-3.44.38-.91,1.08-1.54,2.09-1.89,1.03-.36,1.98-.31,2.86.16.88.46,1.56,1.39,2.04,2.79Z"/>
      <path class="cls-3" d="M264.75,353.6l-16.17,2.31,1.24,8.7,14.89-2.13c1.1-.16,1.95-.03,2.56.39.61.41.97,1.02,1.09,1.83s-.06,1.5-.52,2.08c-.46.58-1.24.95-2.36,1.11l-14.89,2.13,1.44,10.08,16.72-2.39c1.13-.16,2.02-.02,2.66.42.65.44,1.03,1.1,1.16,1.97.12.84-.07,1.56-.57,2.17s-1.31.99-2.44,1.15l-19.5,2.79c-1.56.22-2.74.04-3.52-.56-.78-.59-1.29-1.67-1.51-3.21l-3.8-26.63c-.15-1.03-.11-1.9.1-2.59s.62-1.24,1.23-1.63c.61-.39,1.42-.66,2.44-.8l18.95-2.71c1.14-.16,2.03-.03,2.66.4.63.43,1,1.05,1.12,1.88.12.84-.06,1.55-.55,2.14s-1.3.96-2.44,1.13Z"/>
      <path class="cls-3" d="M305.48,373.77c-.12,2.16-.79,4.07-2,5.73-1.21,1.66-2.92,2.92-5.12,3.77-2.2.85-4.77,1.2-7.71,1.03-3.53-.2-6.4-1.03-8.61-2.5-1.57-1.05-2.82-2.41-3.74-4.06-.92-1.66-1.34-3.24-1.26-4.75.05-.88.4-1.61,1.04-2.2.65-.59,1.44-.86,2.38-.81.76.04,1.4.32,1.9.84s.91,1.27,1.23,2.25c.39,1.16.83,2.14,1.31,2.94.48.79,1.19,1.47,2.12,2.02s2.18.87,3.74.96c2.15.12,3.92-.28,5.31-1.2,1.4-.92,2.14-2.13,2.22-3.63.07-1.19-.24-2.17-.92-2.95-.68-.78-1.58-1.4-2.71-1.85s-2.63-.96-4.52-1.5c-2.53-.75-4.64-1.57-6.33-2.48-1.68-.9-3-2.08-3.93-3.52s-1.35-3.2-1.23-5.27c.11-1.97.75-3.68,1.91-5.15,1.16-1.47,2.78-2.55,4.86-3.26,2.08-.71,4.49-.98,7.24-.82,2.19.12,4.08.51,5.65,1.14,1.57.64,2.86,1.43,3.86,2.4s1.72,1.95,2.15,2.97c.43,1.02.62,2,.57,2.94-.05.86-.4,1.62-1.05,2.28-.65.66-1.43.96-2.34.91-.83-.05-1.45-.29-1.85-.73s-.84-1.14-1.29-2.12c-.57-1.39-1.29-2.48-2.16-3.29-.87-.81-2.31-1.27-4.32-1.38-1.87-.11-3.4.22-4.59.97-1.19.76-1.82,1.71-1.89,2.86-.04.72.12,1.34.48,1.89.36.54.87,1.02,1.53,1.43.66.41,1.33.74,2.02,1,.69.25,1.82.63,3.41,1.12,1.99.59,3.78,1.21,5.38,1.87,1.6.66,2.95,1.43,4.05,2.31,1.1.88,1.93,1.96,2.51,3.24.57,1.28.81,2.82.7,4.62Z"/>
      <path class="cls-3" d="M338.91,382c-.55,2.09-1.59,3.83-3.11,5.21-1.52,1.38-3.44,2.27-5.77,2.67-2.33.4-4.91.22-7.76-.53-3.42-.9-6.06-2.29-7.94-4.17-1.33-1.34-2.28-2.92-2.85-4.73-.57-1.81-.67-3.45-.28-4.91.22-.85.71-1.5,1.46-1.95.75-.45,1.58-.55,2.49-.31.74.2,1.3.6,1.69,1.2.39.61.64,1.42.76,2.45.15,1.22.38,2.26.7,3.14.32.87.88,1.67,1.68,2.4.8.73,1.96,1.29,3.47,1.69,2.08.55,3.89.51,5.45-.12s2.52-1.66,2.9-3.11c.3-1.15.2-2.17-.31-3.07-.51-.9-1.27-1.69-2.28-2.36s-2.39-1.46-4.13-2.38c-2.33-1.24-4.23-2.47-5.71-3.69-1.47-1.22-2.52-2.63-3.15-4.24-.63-1.61-.68-3.41-.15-5.41.5-1.9,1.47-3.46,2.9-4.66s3.23-1.95,5.41-2.22,4.6-.06,7.25.64c2.12.56,3.89,1.31,5.3,2.25,1.41.94,2.51,1.98,3.31,3.12s1.3,2.26,1.52,3.34c.22,1.08.21,2.08-.03,3-.22.83-.71,1.51-1.48,2.02-.77.51-1.59.65-2.47.42-.8-.21-1.36-.57-1.67-1.08-.31-.51-.59-1.29-.84-2.33-.28-1.47-.77-2.69-1.46-3.65-.69-.96-2.01-1.7-3.96-2.22-1.81-.48-3.37-.47-4.69.04-1.32.5-2.13,1.31-2.42,2.43-.18.69-.15,1.34.09,1.94.25.6.65,1.17,1.22,1.71.57.54,1.16,1,1.78,1.38.62.38,1.66.98,3.12,1.78,1.83.97,3.46,1.94,4.9,2.91,1.44.97,2.6,1.99,3.51,3.07.9,1.08,1.5,2.3,1.81,3.67.3,1.37.23,2.93-.24,4.67Z"/>
      <path class="cls-3" d="M387.42,383.05l-9.5,16.17c-.82,1.4-1.59,2.56-2.28,3.47-.7.91-1.55,1.75-2.57,2.51-1.7,1.29-3.63,1.93-5.8,1.93s-4.41-.68-6.73-2.04c-2.09-1.23-3.64-2.58-4.65-4.06-1.01-1.48-1.51-3.21-1.5-5.18.01-1.05.18-2.17.5-3.36.32-1.19.75-2.25,1.3-3.17.58-.98,1.29-1.57,2.14-1.77.85-.2,1.71-.04,2.56.46.83.49,1.31,1.09,1.45,1.82.14.72.03,1.66-.34,2.8-.4,1.22-.67,2.22-.81,3.01s-.07,1.57.22,2.37c.29.79.95,1.49,1.99,2.1,2.76,1.62,5.34.41,7.72-3.65l10.03-17.07c.74-1.26,1.58-2.05,2.5-2.35.93-.31,1.86-.18,2.82.38.97.57,1.55,1.34,1.75,2.3.2.97-.08,2.08-.82,3.34Z"/>
      <path class="cls-3" d="M413.07,397.76c2.75,2.49,4.61,5.19,5.57,8.09.96,2.9,1.02,5.84.17,8.82s-2.53,5.85-5.04,8.62c-1.86,2.05-3.82,3.66-5.9,4.84-2.07,1.17-4.22,1.87-6.45,2.1-2.22.23-4.44-.07-6.65-.88-2.21-.81-4.35-2.16-6.44-4.05-2.08-1.88-3.63-3.9-4.66-6.05-1.03-2.16-1.55-4.34-1.54-6.55,0-2.21.5-4.43,1.49-6.65s2.39-4.33,4.19-6.32c1.85-2.04,3.83-3.64,5.96-4.82,2.13-1.17,4.28-1.85,6.48-2.04,2.19-.19,4.37.12,6.54.93,2.17.81,4.26,2.13,6.29,3.97ZM408.35,418.32c1.76-1.94,2.97-3.91,3.63-5.9.66-1.99.74-3.88.24-5.66-.5-1.78-1.51-3.36-3.02-4.72-1.07-.97-2.25-1.67-3.53-2.09-1.28-.42-2.59-.54-3.95-.37-1.36.18-2.77.69-4.24,1.55s-2.88,2.03-4.23,3.53c-1.37,1.51-2.41,3.04-3.13,4.61-.72,1.56-1.1,3.06-1.13,4.49-.03,1.43.22,2.75.76,3.96.54,1.21,1.34,2.3,2.42,3.28,1.38,1.25,2.95,2.05,4.73,2.4s3.65.12,5.64-.69c1.98-.82,3.92-2.28,5.82-4.38Z"/>
      <path class="cls-3" d="M442.84,442.29l-9.46-13.31-7.17,5.09,8.71,12.26c.64.9.92,1.72.83,2.45-.09.73-.47,1.33-1.13,1.81-.66.47-1.36.64-2.09.5-.73-.14-1.42-.67-2.07-1.58l-8.71-12.26-8.3,5.9,9.79,13.77c.66.93.94,1.78.85,2.56-.1.78-.5,1.42-1.22,1.93-.69.49-1.42.65-2.18.49-.77-.16-1.48-.71-2.14-1.64l-11.41-16.06c-.91-1.29-1.29-2.42-1.12-3.38.17-.97.89-1.91,2.17-2.81l21.93-15.58c.85-.6,1.63-.97,2.35-1.1s1.39-.01,2.02.35,1.24.96,1.83,1.8l11.09,15.6c.67.94.96,1.79.87,2.55-.09.75-.48,1.37-1.15,1.85-.69.49-1.41.65-2.15.49s-1.45-.71-2.12-1.65Z"/>
    </g>
  </g>
</svg>