<?xml version="1.0" encoding="UTF-8"?>
<svg id="Ebene_1" data-name="Ebene 1" xmlns="http://www.w3.org/2000/svg" viewBox="0 0 595.28 841.89">
  <defs>
    <style>
      .cls-1 {
        fill: #354f7b;
      }

      .cls-1, .cls-2 {
        stroke: #19233d;
        stroke-miterlimit: 10;
        stroke-width: 4px;
      }

      .cls-2 {
        fill: none;
      }

      .cls-3 {
        fill: #19233d;
        font-family: ArialRoundedMTBold, 'Arial Rounded MT Bold';
        font-size: 90px;
        letter-spacing: -.04em;
      }
    </style>
  </defs>
  <path class="cls-1" d="M170.89,657.71l-11.84-3.94c-8.94-2.97-17.64,5.06-15.4,14.21l2.97,12.11-9.43-8.17c-7.12-6.16-18.24-2.07-19.67,7.23l-1.89,12.33-5.59-11.15c-4.22-8.42-16.06-8.9-20.94-.84l-6.46,10.67-.89-12.44c-.67-9.39-11.43-14.36-19.02-8.79l-10.05,7.38,3.94-11.84c2.97-8.94-5.06-17.64-14.21-15.4l-12.11,2.97,8.17-9.43c6.16-7.12,2.07-18.24-7.23-19.67l-12.33-1.89,11.15-5.59c8.42-4.22,8.9-16.06.84-20.94l-10.67-6.46,12.44-.89c9.39-.67,14.36-11.43,8.79-19.02l-7.38-10.05,11.84,3.94c8.94,2.97,17.64-5.06,15.4-14.21l-2.97-12.11,9.43,8.17c7.12,6.16,18.24,2.07,19.67-7.23l1.89-12.33,5.59,11.15c4.22,8.42,16.06,8.9,20.94.84l6.46-10.67,1.01,14.15c1.07,5.45,7.59,6.89,10.82,2.37l6.45-9.35.54,11.56c.39,2.72,3.79,3.6,5.59,1.35l3.55-4.52.18,12.25c-11.88-3.25-14.54,4.74-14.54,4.74l-2.42,8.96-3.15-5.57-1.69,13.85-3.88-6.1c-14.26-5.39-18.85-2.9-19.86.24-1.95,5.23,6.51,10.13,13.9,13.29l10.56,3.9-22.25,2.85,21.49,3.84-22.55,10.17,22.74-4.32-13.72,12.41,15.91-7.47-9.33,15.55,11.78-10.98-.88,9.85s3.48-7.18,6.2-12.54c2.42,4.36,21.69,8.77,21.69,8.77,0,0-7.02,1.86-7.88,1.95-4.28,1.53-2.98,6.08.52,6.55l27,5.39-8.95,1.25c-12.08,2.01-13.2,10-7.63,17.6l7.38,10.05Z"/>
  <g>
    <ellipse class="cls-2" cx="168.14" cy="593.87" rx="4.81" ry="4.95"/>
    <path class="cls-2" d="M150.29,552.95c1.36,7.54,4.59,22.03,11.64,31.36,1.59,2.1,3.15,3.66,4.61,4.81"/>
    <path class="cls-2" d="M143.48,609.45c-7.99-3.25-2.22-7.73-1.42-8.22,3.39-2.1,9.03-4.81,24.33-2.78"/>
    <path class="cls-2" d="M138.5,576.38c.04-.15.92-3.42,3.48-4.16,2.23-.65,4.75.9,5.8,3.81"/>
  </g>
  <text class="cls-3" transform="translate(178.75 606.79)"><tspan x="0" y="0">JOBLESS</tspan><tspan x="0" y="68">JOE</tspan></text>
</svg>