<?xml version="1.0" encoding="UTF-8"?>
<svg id="Ebene_1" data-name="Ebene 1" xmlns="http://www.w3.org/2000/svg" viewBox="0 0 595.28 841.89">
  <defs>
    <style>
      .cls-1 {
        fill: none;
        stroke: #19233d;
      }

      .cls-1, .cls-2 {
        stroke-miterlimit: 10;
        stroke-width: 6px;
      }

      .cls-2 {
        fill: #354f7b;
        stroke: #19233e;
      }
    </style>
  </defs>
  <path class="cls-2" d="M421.8,496.36l-19.83-6.59c-14.97-4.98-29.55,8.48-25.8,23.8l4.98,20.29-15.79-13.68c-11.92-10.33-30.55-3.47-32.94,12.12l-3.17,20.65-9.36-18.68c-7.06-14.1-26.9-14.9-35.07-1.41l-10.83,17.87-1.5-20.84c-1.13-15.73-19.15-24.06-31.86-14.72l-16.84,12.36,6.59-19.83c4.98-14.97-8.48-29.55-23.8-25.8l-20.29,4.98,13.68-15.79c10.33-11.92,3.47-30.55-12.12-32.94l-20.65-3.17,18.68-9.36c14.1-7.06,14.9-26.9,1.41-35.07l-17.87-10.83,20.84-1.5c15.73-1.13,24.06-19.15,14.72-31.86l-12.36-16.84,19.83,6.59c14.97,4.98,29.55-8.48,25.8-23.8l-4.98-20.29,15.79,13.68c11.92,10.33,30.55,3.47,32.94-12.12l3.17-20.65,9.36,18.68c7.06,14.1,26.9,14.9,35.07,1.41l10.83-17.87,1.69,23.71c1.79,9.13,12.72,11.53,18.12,3.97l10.81-15.67.9,19.36c.65,4.56,6.36,6.03,9.37,2.25l5.94-7.56.3,20.51c-19.89-5.45-24.36,7.94-24.36,7.94l-4.06,15.01-5.27-9.33-2.83,23.19-6.5-10.21c-23.88-9.02-31.58-4.86-33.27.41-3.26,8.76,10.91,16.97,23.29,22.27l17.69,6.54-37.27,4.77,35.99,6.44-37.77,17.03,38.1-7.24-22.98,20.78,26.65-12.51-15.63,26.05,19.73-18.39-1.47,16.5s5.83-12.02,10.39-21c4.06,7.3,36.34,14.7,36.34,14.7,0,0-11.76,3.12-13.2,3.26-7.16,2.56-4.99,10.19.86,10.97l45.23,9.04-14.99,2.1c-20.24,3.37-22.12,16.76-12.78,29.47l12.36,16.84Z"/>
  <ellipse class="cls-1" cx="417.19" cy="389.42" rx="8.06" ry="8.29"/>
  <path class="cls-1" d="M387.3,320.89c2.27,12.63,7.69,36.9,19.5,52.53,2.66,3.53,5.28,6.12,7.73,8.05"/>
  <path class="cls-1" d="M375.17,415.32c-12.92-5.9-3-12.74-1.66-13.57,5.68-3.52,15.13-8.06,40.75-4.65"/>
  <path class="cls-1" d="M367.54,360.13c.06-.25,1.54-5.72,5.83-6.97,3.73-1.08,7.96,1.5,9.72,6.39"/>
</svg>